<svg xmlns="http://www.w3.org/2000/svg" xmlns:xlink="http://www.w3.org/1999/xlink" xmlns:inkscape="http://www.inkscape.org/namespaces/inkscape" version="1.1" width="595.275" height="841.89" viewBox="0 0 595.275 841.89">
<g inkscape:groupmode="layer" inkscape:label="Layer 1">
<path transform="matrix(1,0,0,-1,0,841.89)" d="M228.147 158.939H218.106V227.523H228.147V158.939ZM228.147 252.602V245.6H218.106V256.875L228.147 252.602Z"/>
<path transform="matrix(1,0,0,-1,282.171,614.367)" d="M0 0V-8.32H-26.408V-50.295C-26.408-56.219-24.902-59.646-21.904-60.549-20.801-60.877-19.021-61.053-16.537-61.053-12.205-61.053-9.367-59.846-8.035-57.463-7.127-55.83-6.67-52.588-6.67-47.711V-28.027L2.582-33.955C2.625-51.141 2.654-48.34 2.654-49.631 2.654-62.945-3.875-69.586-16.898-69.586-22.766-69.586-27.139-68.771-30.008-67.148-33.726-65.037-35.806-61.309-36.233-55.959-36.377-54.813-36.45-52.92-36.45-50.295V-8.32H-45.917V0H-36.45V29.352L-26.408 25.078V0H0Z"/>
<path transform="matrix(1,0,0,-1,305.912,589.288)" d="M0 0V-33.539L.219-33.684C1.406-30.672 3.301-28.461 5.883-27.086 9.654-25.078 14.908-24.072 21.635-24.072 28.949-24.072 34.371-24.977 37.902-26.797 43.152-29.523 46.191-34.473 46.996-41.646 47.182-43.369 47.281-46.092 47.281-49.838V-93.662H37.238V-49.838C37.238-43.84 36.668-39.883 35.518-37.916 34.168-35.619 32.207-34.115 29.623-33.398 27.746-32.881 25.018-32.605 21.434-32.605 15.334-32.605 10.688-33.342 7.475-34.832 2.828-36.941 .348-41.602 0-48.82V-50.756-55.061-93.662H-10.041V4.273L0 0Z"/>
<path transform="matrix(1,0,0,-1,419.121,642.71)" d="M0 0C-.141 7.287-.643 12.107-1.504 14.504-2.609 17.559-5.062 19.566-8.85 20.525-10.971 21.059-14.301 21.314-18.861 21.314-24.914 21.314-29.275 20.801-31.973 19.738-35.859 18.217-38.156 14.172-38.887 7.615-39.074 5.852-39.146 3.299-39.102 0H0ZM0-19.508H10.26C10.301-20.801 10.332-21.807 10.332-22.521 10.332-32.221 5.482-38.088-4.229-40.096-8.061-40.854-13.182-41.242-19.576-41.242-31.687-41.242-39.764-38.934-43.836-34.285-47.752-29.779-49.719-20.4-49.719-6.084-49.719 7.113-48.111 16.049-44.91 20.744-42.332 24.557-38.541 27.01-33.576 28.057-29.562 28.918-24.959 29.35-19.795 29.35-10.426 29.35-3.797 28.373 .072 26.408 5.996 23.395 9.299 16.365 9.975 5.322 10.115 2.926 10.217-1.451 10.26-7.805H-39.102C-39.102-15.523-38.758-20.557-38.1-22.953-36.662-28.16-33.291-31.246-27.984-32.205-25.816-32.594-23.006-32.777-19.508-32.777-13.395-32.777-9.451-32.564-7.672-32.133-3.123-31.127-.613-28.617-.141-24.586-.041-23.787 0-22.092 0-19.508"/>
<path transform="matrix(1,0,0,-1,498.322,632.294)" d="M0 0H-10.043C-10.141 3.668-10.602 6.193-11.406 7.527-12.512 9.207-14.762 10.24-18.16 10.613-19.898 10.814-23.053 10.898-27.658 10.898-35.947 10.898-41.129 10.125-43.178 8.605-44.816 7.398-45.631 4.773-45.631 .715-45.631-3.117-45.273-5.711-44.557-7.117-43.551-9.125-41.371-10.301-38.016-10.705-36.668-10.846-33.078-11.049-27.227-11.334-18.133-11.764-12.869-12.111-11.434-12.34-2.469-13.83 2.008-20.187 2.008-31.418 2.008-38.648 .186-43.783-3.443-46.854-7.215-50.066-15.307-51.658-27.687-51.658-38.789-51.658-46.436-50.096-50.652-46.996-54.424-44.215-56.32-39.535-56.32-32.938-56.32-31.834-56.291-30.469-56.248-28.836H-45.848C-45.988-30.385-46.063-31.59-46.063-32.508-46.063-37.041-44.77-40.139-42.188-41.762-40.18-43.01-35.447-43.623-27.975-43.623-19.467-43.623-13.943-42.693-11.406-40.828-9.295-39.293-8.248-36.139-8.248-31.361-8.248-27.145-8.85-24.332-10.043-22.896-11.375-21.262-14.088-20.432-18.145-20.375-30.682-20.229-39.479-19.539-44.557-18.305-49.146-17.201-52.275-14.834-53.951-11.193-55.098-8.752-55.674-5.125-55.674-.291-55.674 7.111-54.051 12.049-50.797 14.486-46.865 17.455-39.002 18.934-27.186 18.934-16.625 18.934-9.281 17.555-5.166 14.773-1.723 12.418 0 8.088 0 1.717V0Z"/>
<path transform="matrix(1,0,0,-1,106.362,699.773)" d="M0 0V-2.066H-6.557V-12.49C-6.557-13.963-6.184-14.813-5.438-15.038-5.166-15.122-4.721-15.163-4.106-15.163-3.029-15.163-2.325-14.866-1.994-14.272-1.768-13.868-1.657-13.061-1.657-11.849V-10.993H.642C.654-11.563 .66-12.01 .66-12.33 .66-15.633-.958-17.284-4.196-17.284-5.653-17.284-6.739-17.082-7.45-16.678-8.375-16.154-8.891-15.229-8.998-13.897-9.034-13.613-9.051-13.145-9.051-12.49V-2.066H-11.403V0H-9.051V4.099H-6.557V0H0Z"/>
<path transform="matrix(1,0,0,-1,109.445,699.773)" d="M0 0H2.495L2.228-1.959 2.281-2.013C2.828-1.122 3.415-.528 4.045-.231 4.912 .185 5.958 .393 7.181 .393 10.305 .393 11.868-1.199 11.868-4.383 11.868-4.668 11.862-5.084 11.849-5.631H9.39V-4.258C9.39-3.474 9.249-2.904 8.966-2.548 8.54-2.001 7.748-1.728 6.59-1.728 4.734-1.728 3.523-2.315 2.956-3.491 2.648-4.133 2.495-5.245 2.495-6.823V-17.034H0V0Z"/>
<path transform="matrix(1,0,0,-1,130.844,708.431)" d="M0 0C-2.126 0-3.492-.257-4.098-.767-4.514-1.123-4.722-1.926-4.722-3.173-4.722-4.623-4.347-5.572-3.599-6.023-3.063-6.345-1.989-6.505-.373-6.505 1.883-6.505 3.404-6.178 4.188-5.525 4.663-5.121 4.9-4.402 4.9-3.369 4.9-2.134 4.639-1.296 4.117-.856 3.439-.286 2.068 0 0 0M-4.098 3.883H-6.592C-6.568 5.309-6.384 6.343-6.04 6.984-5.601 7.804-4.751 8.35-3.492 8.623-2.613 8.813-1.395 8.908 .161 8.908 2.299 8.908 3.844 8.695 4.793 8.267 6.16 7.648 6.938 6.467 7.128 4.722 7.211 3.96 7.252 3.343 7.252 2.867V-8.376H4.758L4.972-6.541 4.918-6.522C4.514-7.117 4.052-7.556 3.529-7.841 2.578-8.364 1.118-8.626-.854-8.626-3.349-8.626-5.09-8.186-6.075-7.306-6.907-6.559-7.323-5.287-7.323-3.493-7.323-1.284-6.801 .2-5.757 .961-4.808 1.65-3.154 1.995-.793 1.995 1.069 1.995 2.505 1.793 3.513 1.389 4.011 1.187 4.408 .801 4.704 .231L4.758 .249V2.315C4.758 3.836 4.604 4.946 4.297 5.647 3.908 6.539 2.598 6.984 .366 6.984-1.548 6.984-2.798 6.765-3.389 6.324-3.862 5.98-4.098 5.361-4.098 4.472V3.883Z"/>
<path transform="matrix(1,0,0,-1,154.4,710.659)" d="M0 0H2.495C2.507-.368 2.513-.653 2.513-.854 2.513-2.91 1.966-4.359 .874-5.202-.161-5.998-2.067-6.397-4.847-6.397-7.732-6.397-9.681-5.827-10.69-4.687-11.7-3.546-12.206-1.17-12.206 2.441-12.206 5.458-11.837 7.561-11.101 8.75-10.115 10.34-8.078 11.137-4.989 11.137-2.875 11.137-1.324 10.924-.337 10.495 1.124 9.865 1.948 8.66 2.138 6.878 2.174 6.558 2.197 6.041 2.209 5.328H-.285V5.755C-.285 6.92-.552 7.745-1.086 8.232-1.668 8.756-3.046 9.017-5.221 9.017-7.359 9.017-8.689 8.362-9.212 7.057-9.485 6.392-9.622 4.732-9.622 2.085-9.622-.98-9.176-2.886-8.285-3.635-7.775-4.062-6.444-4.276-4.294-4.276-1.906-4.276-.547-3.688-.214-2.512-.059-1.966 .012-1.129 0 0"/>
<path transform="matrix(1,0,0,-1,0,841.89)" d="M162.882 125.083H160.388V142.117H162.882V125.083ZM162.882 146.607H160.388V149.405H162.882V146.607Z"/>
<path transform="matrix(1,0,0,-1,167.266,699.773)" d="M0 0H2.494L2.423-2.315 2.494-2.369C2.768-1.739 3.083-1.276 3.439-.979 4.413-.16 5.987 .25 8.161 .25 10.987 .25 12.841-.48 13.721-1.941 14.112-2.595 14.308-3.931 14.308-5.95V-17.034H11.813V-6.165C11.813-4.704 11.683-3.712 11.422-3.189 10.983-2.31 9.792-1.87 7.848-1.87 6.413-1.87 5.339-2.061 4.629-2.44 3.265-3.165 2.583-4.614 2.583-6.788V-17.034H0V0Z"/>
<path transform="matrix(1,0,0,-1,192.87,701.643)" d="M0 0C-1.829 0-3.059-.356-3.688-1.069-4.187-1.628-4.484-2.478-4.579-3.618-4.65-4.473-4.687-5.388-4.687-6.362-4.687-8.583-4.561-10.134-4.312-11.012-4.11-11.714-3.795-12.224-3.367-12.545-2.691-13.044-1.55-13.293 .054-13.293 1.966-13.293 3.25-12.854 3.903-11.975 4.556-11.096 4.883-9.202 4.883-6.291 4.883-4.521 4.781-3.273 4.579-2.548 4.26-1.408 3.618-.672 2.655-.339 2.001-.113 1.117 0 0 0M7.431 1.87V-16.269C7.431-17.837 7.252-19.036 6.897-19.868 6.422-20.961 5.548-21.732 4.277-22.185 3.231-22.564 1.847-22.755 .125-22.755-1.751-22.755-3.165-22.57-4.116-22.202-5.482-21.667-6.284-20.622-6.521-19.066-6.581-18.686-6.616-18.057-6.628-17.177H-4.227C-4.203-18.307-4.072-19.072-3.834-19.476-3.515-20.034-2.856-20.385-1.859-20.528-1.363-20.599-.639-20.634 .311-20.634 1.627-20.634 2.618-20.492 3.282-20.207 4.16-19.826 4.675-19.066 4.83-17.926 4.9-17.403 4.936-16.922 4.936-16.482V-13.062L4.883-13.044C4.539-13.875 3.981-14.456 3.21-14.789 2.237-15.206 .981-15.414-.562-15.414-4.429-15.414-6.588-13.888-7.038-10.835-7.205-9.705-7.288-8.429-7.288-7.002-7.288-4.295-7.104-2.429-6.735-1.408-6.188 .113-5.203 1.128-3.777 1.639-2.886 1.96-1.728 2.12-.303 2.12 2.382 2.12 4.159 1.265 5.025-.445L5.079-.428 4.936 1.87H7.431Z"/>
<path transform="matrix(1,0,0,-1,220.346,704.318)" d="M0 0C-1.236-.284-2.007-.504-2.317-.657-3.054-1.014-3.516-1.609-3.706-2.44-3.849-3.057-3.92-3.919-3.92-5.022-3.92-7.506-3.504-9.057-2.672-9.674-2.15-10.065-1.247-10.279 .035-10.315 .915-10.339 1.9-10.352 2.994-10.352 4.989-10.352 6.374-10.25 7.146-10.048 8.393-9.715 9.177-8.974 9.498-7.821L0 0ZM9.996-1.744H12.758V-3.577C12.758-4.883 12.665-6.046 12.479-7.066L16.732-10.583 15.235-12.489 11.636-9.514C10.757-11.379 9.124-12.412 6.736-12.614 5.738-12.696 4.58-12.739 3.261-12.739 1.182-12.739-.231-12.696-.979-12.614-2.774-12.412-4.081-11.937-4.9-11.188-6.088-10.119-6.682-8.041-6.682-4.952-6.682-3.313-6.504-2.06-6.147-1.192-5.636 .02-4.705 .792-3.35 1.123-3.171 1.172-2.822 1.248-2.299 1.355-2.192 1.38-1.996 1.421-1.71 1.479-2.507 2.157-3.054 2.728-3.35 3.191-3.73 3.797-3.92 4.641-3.92 5.722-3.92 8.063-3.4 9.63-2.361 10.427-1.321 11.222 .647 11.619 3.546 11.619 6.195 11.619 8 11.188 8.963 10.328 9.925 9.466 10.406 8.008 10.406 5.954 10.406 5.585 10.394 5.057 10.371 4.367H7.68C7.668 4.831 7.662 5.127 7.662 5.258 7.662 6.98 7.461 8.057 7.058 8.483 6.583 8.994 5.398 9.249 3.5 9.249 1.415 9.249 .081 9-.5 8.502-.939 8.121-1.158 7.392-1.158 6.312-1.158 5.301-.97 4.529-.593 3.995-.368 3.676 .116 3.205 .858 2.589L10.02-5.034C10.051-4.452 10.067-3.955 10.067-3.54 10.067-3.126 10.043-2.527 9.996-1.744"/>
<path transform="matrix(1,0,0,-1,250.958,692.485)" d="M0 0V-9.39L.054-9.425C.35-8.677 .818-8.131 1.458-7.786 2.396-7.288 3.701-7.038 5.374-7.038 7.187-7.038 8.535-7.265 9.412-7.716 10.716-8.392 11.47-9.622 11.671-11.403 11.718-11.831 11.742-12.508 11.742-13.435V-24.322H9.248V-13.435C9.248-11.95 9.105-10.965 8.82-10.478 8.486-9.907 7.998-9.532 7.355-9.354 6.892-9.224 6.213-9.158 5.32-9.158 3.809-9.158 2.654-9.343 1.857-9.711 .702-10.234 .083-11.392 0-13.186V-13.667-14.736-24.322H-2.495V0H0Z"/>
<path transform="matrix(1,0,0,-1,279.075,706.81)" d="M0 0C-.036 1.805-.161 3.005-.375 3.598-.649 4.359-1.258 4.857-2.199 5.096-2.724 5.226-3.553 5.292-4.685 5.292-6.187 5.292-7.273 5.161-7.94 4.9-8.906 4.519-9.479 3.515-9.658 1.888-9.705 1.448-9.723 .819-9.711 0H0ZM0-4.848H2.548C2.56-5.168 2.566-5.418 2.566-5.596 2.566-8.007 1.361-9.462-1.05-9.961-2.001-10.151-3.272-10.247-4.864-10.247-7.87-10.247-9.877-9.67-10.887-8.519-11.861-7.401-12.349-5.067-12.349-1.516-12.349 1.763-11.95 3.985-11.154 5.149-10.512 6.099-9.574 6.704-8.339 6.967-7.341 7.18-6.2 7.287-4.918 7.287-2.589 7.287-.943 7.043 .018 6.557 1.492 5.809 2.311 4.062 2.477 1.317 2.513 .724 2.536-.362 2.548-1.942H-9.711C-9.711-3.856-9.628-5.108-9.461-5.703-9.105-6.997-8.267-7.764-6.949-8.001-6.414-8.097-5.713-8.144-4.847-8.144-3.325-8.144-2.346-8.091-1.906-7.983-.777-7.734-.154-7.109-.036-6.113-.012-5.911 0-5.489 0-4.848"/>
<path transform="matrix(1,0,0,-1,292.278,708.431)" d="M0 0C-2.126 0-3.492-.257-4.098-.767-4.514-1.123-4.722-1.926-4.722-3.173-4.722-4.623-4.348-5.572-3.599-6.023-3.064-6.345-1.99-6.505-.374-6.505 1.883-6.505 3.404-6.178 4.188-5.525 4.662-5.121 4.9-4.402 4.9-3.369 4.9-2.134 4.639-1.296 4.117-.856 3.439-.286 2.068 0 0 0M-4.098 3.883H-6.592C-6.569 5.309-6.385 6.343-6.04 6.984-5.601 7.804-4.751 8.35-3.492 8.623-2.613 8.813-1.395 8.908 .161 8.908 2.299 8.908 3.844 8.695 4.793 8.267 6.16 7.648 6.937 6.467 7.127 4.722 7.211 3.96 7.252 3.343 7.252 2.867V-8.376H4.758L4.972-6.541 4.918-6.522C4.514-7.117 4.052-7.556 3.529-7.841 2.578-8.364 1.117-8.626-.854-8.626-3.35-8.626-5.09-8.186-6.075-7.306-6.908-6.559-7.323-5.287-7.323-3.493-7.323-1.284-6.802 .2-5.758 .961-4.808 1.65-3.154 1.995-.793 1.995 1.068 1.995 2.505 1.793 3.513 1.389 4.011 1.187 4.408 .801 4.704 .231L4.758 .249V2.315C4.758 3.836 4.604 4.946 4.297 5.647 3.908 6.539 2.598 6.984 .365 6.984-1.548 6.984-2.799 6.765-3.389 6.324-3.862 5.98-4.098 5.361-4.098 4.472V3.883Z"/>
<path transform="matrix(1,0,0,-1,313.18,699.773)" d="M0 0V-2.066H-6.557V-12.49C-6.557-13.963-6.184-14.813-5.439-15.038-5.167-15.122-4.722-15.163-4.107-15.163-3.029-15.163-2.326-14.866-1.995-14.272-1.769-13.868-1.657-13.061-1.657-11.849V-10.993H.642C.654-11.563 .66-12.01 .66-12.33 .66-15.633-.959-17.284-4.196-17.284-5.654-17.284-6.739-17.082-7.45-16.678-8.375-16.154-8.891-15.229-8.998-13.897-9.034-13.613-9.051-13.145-9.051-12.49V-2.066H-11.403V0H-9.051V4.099H-6.557V0H0Z"/>
<path transform="matrix(1,0,0,-1,0,841.89)" d="M318.508 125.083H316.014V142.117H318.508V125.083ZM318.508 146.607H316.014V149.405H318.508V146.607Z"/>
<path transform="matrix(1,0,0,-1,322.892,699.773)" d="M0 0H2.494L2.423-2.315 2.494-2.369C2.768-1.739 3.083-1.276 3.439-.979 4.413-.16 5.987 .25 8.161 .25 10.987 .25 12.841-.48 13.721-1.941 14.112-2.595 14.308-3.931 14.308-5.95V-17.034H11.813V-6.165C11.813-4.704 11.683-3.712 11.422-3.189 10.983-2.31 9.792-1.87 7.848-1.87 6.413-1.87 5.339-2.061 4.629-2.44 3.265-3.165 2.583-4.614 2.583-6.788V-17.034H0V0Z"/>
<path transform="matrix(1,0,0,-1,348.496,701.643)" d="M0 0C-1.829 0-3.059-.356-3.688-1.069-4.187-1.628-4.484-2.478-4.579-3.618-4.65-4.473-4.687-5.388-4.687-6.362-4.687-8.583-4.561-10.134-4.312-11.012-4.109-11.714-3.795-12.224-3.367-12.545-2.691-13.044-1.55-13.293 .054-13.293 1.966-13.293 3.25-12.854 3.903-11.975 4.556-11.096 4.883-9.202 4.883-6.291 4.883-4.521 4.782-3.273 4.579-2.548 4.26-1.408 3.618-.672 2.655-.339 2.001-.113 1.117 0 0 0M7.431 1.87V-16.269C7.431-17.837 7.252-19.036 6.897-19.868 6.422-20.961 5.548-21.732 4.277-22.185 3.231-22.564 1.847-22.755 .125-22.755-1.751-22.755-3.165-22.57-4.116-22.202-5.482-21.667-6.283-20.622-6.521-19.066-6.581-18.686-6.616-18.057-6.628-17.177H-4.226C-4.203-18.307-4.072-19.072-3.834-19.476-3.515-20.034-2.856-20.385-1.859-20.528-1.362-20.599-.639-20.634 .311-20.634 1.627-20.634 2.618-20.492 3.282-20.207 4.16-19.826 4.675-19.066 4.83-17.926 4.9-17.403 4.936-16.922 4.936-16.482V-13.062L4.883-13.044C4.539-13.875 3.981-14.456 3.211-14.789 2.238-15.206 .981-15.414-.561-15.414-4.429-15.414-6.587-13.888-7.038-10.835-7.205-9.705-7.288-8.429-7.288-7.002-7.288-4.295-7.104-2.429-6.735-1.408-6.188 .113-5.203 1.128-3.777 1.639-2.886 1.96-1.728 2.12-.303 2.12 2.382 2.12 4.159 1.265 5.025-.445L5.079-.428 4.936 1.87H7.431Z"/>
<path transform="matrix(1,0,0,-1,382.601,704.22708)" d="M0 0H-2.495C-2.519 .914-2.632 1.538-2.834 1.871-3.107 2.286-3.667 2.543-4.513 2.637-4.941 2.686-5.727 2.709-6.869 2.709-8.929 2.709-10.214 2.519-10.726 2.139-11.131 1.841-11.333 1.187-11.333 .179-11.333-.771-11.244-1.42-11.065-1.764-10.815-2.263-10.274-2.56-9.441-2.655-9.108-2.69-8.215-2.744-6.764-2.815-4.504-2.922-3.195-3.006-2.838-3.065-.614-3.434 .499-5.014 .499-7.805 .499-9.599 .047-10.876-.855-11.635-1.794-12.431-3.802-12.83-6.878-12.83-9.634-12.83-11.535-12.443-12.58-11.671-13.519-10.983-13.988-9.818-13.988-8.179-13.988-7.906-13.982-7.567-13.971-7.163H-11.386C-11.422-7.544-11.44-7.846-11.44-8.072-11.44-9.201-11.119-9.967-10.478-10.37-9.979-10.68-8.803-10.834-6.949-10.834-4.834-10.834-3.463-10.602-2.833-10.139-2.311-9.759-2.049-8.975-2.049-7.787-2.049-6.742-2.198-6.041-2.495-5.684-2.827-5.28-3.499-5.072-4.508-5.061-7.621-5.025-9.806-4.853-11.066-4.543-12.206-4.271-12.984-3.683-13.4-2.779-13.686-2.174-13.828-1.271-13.828-.071-13.828 1.771-13.424 2.993-12.616 3.6-11.642 4.336-9.688 4.704-6.754 4.704-4.129 4.704-2.305 4.359-1.283 3.67-.428 3.089 0 2.008 0 .428V0Z"/>
<path transform="matrix(1,0,0,-1,393.63,701.643)" d="M0 0C-1.615 0-2.697-.131-3.242-.393-4.074-.796-4.555-1.687-4.687-3.065-4.793-4.158-4.846-5.286-4.846-6.451-4.846-8.149-4.811-9.29-4.74-9.871-4.549-11.488-4.104-12.474-3.402-12.829-2.798-13.139-1.639-13.293 .072-13.293 1.722-13.293 2.822-13.162 3.368-12.901 4.224-12.509 4.716-11.618 4.847-10.229 4.954-9.147 5.007-7.948 5.007-6.628 5.007-3.005 4.526-.95 3.564-.464 2.958-.154 1.77 0 0 0M.214 2.12C2.911 2.12 4.746 1.716 5.72 .908 6.6 .184 7.139-.897 7.342-2.335 7.52-3.57 7.609-5.014 7.609-6.664 7.609-9.361 7.395-11.269 6.967-12.384 6.374-13.941 5.15-14.885 3.297-15.218 2.572-15.348 1.498-15.414 .072-15.414-2.732-15.414-4.609-15.009-5.559-14.201-6.426-13.466-6.967-12.384-7.181-10.959-7.359-9.747-7.448-8.352-7.448-6.771-7.448-3.98-7.234-2.025-6.807-.909-6.212 .647-4.989 1.592-3.135 1.925-2.412 2.055-1.294 2.12 .214 2.12"/>
<path transform="matrix(1,0,0,-1,0,841.89)" d="M407.618 125.083H405.12303V149.405H407.618Z"/>
<path transform="matrix(1,0,0,-1,425.899,699.773)" d="M0 0V-17.034H-2.495L-2.299-14.807-2.352-14.754C-3.219-16.439-5.12-17.284-8.053-17.284-10.762-17.284-12.526-16.428-13.346-14.718-13.714-13.945-13.898-12.817-13.898-11.332V0H-11.404V-11.332C-11.404-13.435-10.777-14.652-9.522-14.985-9.073-15.104-8.439-15.163-7.624-15.163-6.026-15.163-4.878-14.932-4.18-14.468-3.329-13.909-2.802-12.972-2.601-11.653-2.53-11.201-2.495-10.572-2.495-9.764V0H0Z"/>
<path transform="matrix(1,0,0,-1,439.548,699.773)" d="M0 0V-2.066H-6.557V-12.49C-6.557-13.963-6.183-14.813-5.438-15.038-5.166-15.122-4.722-15.163-4.107-15.163-3.029-15.163-2.325-14.866-1.994-14.272-1.769-13.868-1.657-13.061-1.657-11.849V-10.993H.642C.654-11.563 .66-12.01 .66-12.33 .66-15.633-.958-17.284-4.196-17.284-5.654-17.284-6.739-17.082-7.45-16.678-8.375-16.154-8.891-15.229-8.998-13.897-9.034-13.613-9.051-13.145-9.051-12.49V-2.066H-11.403V0H-9.051V4.099H-6.557V0H0Z"/>
<path transform="matrix(1,0,0,-1,0,841.89)" d="M444.876 125.083H442.381V142.117H444.876V125.083ZM444.876 146.607H442.381V149.405H444.876V146.607Z"/>
<path transform="matrix(1,0,0,-1,456.209,701.643)" d="M0 0C-1.615 0-2.697-.131-3.243-.393-4.074-.796-4.556-1.687-4.687-3.065-4.793-4.158-4.847-5.286-4.847-6.451-4.847-8.149-4.811-9.29-4.74-9.871-4.549-11.488-4.104-12.474-3.403-12.829-2.798-13.139-1.639-13.293 .071-13.293 1.722-13.293 2.821-13.162 3.368-12.901 4.224-12.509 4.716-11.618 4.847-10.229 4.954-9.147 5.007-7.948 5.007-6.628 5.007-3.005 4.525-.95 3.564-.464 2.958-.154 1.77 0 0 0M.214 2.12C2.911 2.12 4.746 1.716 5.72 .908 6.599 .184 7.139-.897 7.341-2.335 7.519-3.57 7.608-5.014 7.608-6.664 7.608-9.361 7.395-11.269 6.967-12.384 6.374-13.941 5.149-14.885 3.297-15.218 2.572-15.348 1.497-15.414 .071-15.414-2.732-15.414-4.609-15.009-5.559-14.201-6.426-13.466-6.967-12.384-7.181-10.959-7.359-9.747-7.448-8.352-7.448-6.771-7.448-3.98-7.234-2.025-6.807-.909-6.213 .647-4.989 1.592-3.136 1.925-2.412 2.055-1.295 2.12 .214 2.12"/>
<path transform="matrix(1,0,0,-1,467.72,699.773)" d="M0 0H2.495L2.424-2.315 2.495-2.369C2.769-1.739 3.083-1.276 3.439-.979 4.413-.16 5.988 .25 8.162 .25 10.988 .25 12.842-.48 13.721-1.941 14.112-2.595 14.308-3.931 14.308-5.95V-17.034H11.814V-6.165C11.814-4.704 11.683-3.712 11.423-3.189 10.984-2.31 9.792-1.87 7.848-1.87 6.414-1.87 5.34-2.061 4.629-2.44 3.265-3.165 2.583-4.614 2.583-6.788V-17.034H0V0Z"/>
<path transform="matrix(1,0,0,-1,499.704,704.22708)" d="M0 0H-2.494C-2.518 .914-2.632 1.538-2.834 1.871-3.107 2.286-3.667 2.543-4.513 2.637-4.94 2.686-5.727 2.709-6.869 2.709-8.929 2.709-10.214 2.519-10.726 2.139-11.131 1.841-11.333 1.187-11.333 .179-11.333-.771-11.244-1.42-11.064-1.764-10.815-2.263-10.274-2.56-9.441-2.655-9.108-2.69-8.215-2.744-6.764-2.815-4.503-2.922-3.196-3.006-2.838-3.065-.613-3.434 .5-5.014 .5-7.805 .5-9.599 .048-10.876-.855-11.635-1.794-12.431-3.801-12.83-6.877-12.83-9.633-12.83-11.535-12.443-12.58-11.671-13.519-10.983-13.988-9.818-13.988-8.179-13.988-7.906-13.982-7.567-13.97-7.163H-11.387C-11.422-7.544-11.44-7.846-11.44-8.072-11.44-9.201-11.119-9.967-10.478-10.37-9.978-10.68-8.803-10.834-6.949-10.834-4.834-10.834-3.463-10.602-2.833-10.139-2.31-9.759-2.048-8.975-2.048-7.787-2.048-6.742-2.198-6.041-2.494-5.684-2.827-5.28-3.499-5.072-4.508-5.061-7.62-5.025-9.806-4.853-11.065-4.543-12.206-4.271-12.984-3.683-13.4-2.779-13.685-2.174-13.827-1.271-13.827-.071-13.827 1.771-13.423 2.993-12.615 3.6-11.642 4.336-9.687 4.704-6.754 4.704-4.128 4.704-2.304 4.359-1.283 3.67-.427 3.089 0 2.008 0 .428V0Z"/>
<path transform="matrix(1,0,0,-1,195.412,621.825)" d="M0 0C-3.512 5.652-10.75 8.465-21.722 8.465-28.533 8.465-34.148 7.271-38.545 4.879-41.505 3.242-44.054 .602-46.187-3.082H-46.411C-49.014 4.621-58.306 8.465-70.252 8.465-70.37 8.465-70.477 8.457-70.588 8.445-70.721 8.449-70.835 8.465-70.965 8.465-81.937 8.465-89.449 5.633-94.653 0-97.441-3.021-100.466-8.922-100.466-16.283V-61.125H-90.1V-15.35C-89.736-10.033-87.57-6.998-85.776-5.234-82.648-2.164-77.814-.187-70.767-.088V-.111C-63.879-.316-57.547-2.027-55.84-5.307-55.353-6.268-55.056-7.17-54.952-8.031-54.613-10.385-54.435-13.125-54.435-16.283V-61.125H-42.587V-21.459C-42.369-15.41-42.054-10.672-40.868-8.031-38.495-2.725-33.345-.068-22.552-.068-15.12-.068-10.541-1.791-8.812-5.234-7.687-7.486-7.108-10.857-7.108-15.35V-61.125H3.258V-16.283C3.258-8.922 2.16-3.498 0 0"/>
</g>
</svg>
